<svg aria-hidden="true" style="position:absolute;width:0;height:0;overflow:hidden" xmlns="http://www.w3.org/2000/svg"><defs>
<symbol id="icon-archive" viewBox="0 0 30 32"><path d="M21.333 17.641h-4.185v-4.923h-4.759v4.923H8.204l6.564 6.564 6.564-6.564zM28.784 4.89l-2.281-2.757a2.382 2.382 0 0 0-1.887-.903H4.924c-.771 0-1.444.345-1.904.903L.755 4.89A3.212 3.212 0 0 0 0 6.974v20.513a3.292 3.292 0 0 0 3.282 3.282h22.974a3.292 3.292 0 0 0 3.282-3.282V6.974c0-.788-.279-1.526-.755-2.084zM5.317 4.513h18.905l1.329 1.592H4.004l1.313-1.592zm20.939 22.974H3.282V9.436h22.974v18.051z"/></symbol>
<symbol id="icon-ellipse" viewBox="0 0 32 32"><path  d="M32 16c0 8.837-7.163 16-16 16S0 24.837 0 16 7.163 0 16 0s16 7.163 16 16z"/><path  d="M32 16c0 8.837-7.163 16-16 16S0 24.837 0 16 7.163 0 16 0s16 7.163 16 16z"/></symbol>
<symbol id="icon-close" viewBox="0 0 32 32"><path d="m29.576 5.159-2.735-2.735L16 13.265 5.159 2.424 2.424 5.159 13.265 16 2.424 26.841l2.735 2.735L16 18.735l10.841 10.841 2.735-2.735L18.735 16 29.576 5.159z"/></symbol>
<symbol id="icon-a-z" viewBox="0 0 32 32"><path   d="m20.48 4.815-3.596-3.596-3.596 3.596h7.192zm-6.933 19.916h2.804L9.509 7.268H7.01L.153 24.731h2.804l1.402-3.733h7.787l1.402 3.733zm-8.259-6.232 2.956-7.893 2.956 7.893H5.288zm11.596 12.282 3.55-3.551h-7.101l3.55 3.551zM30.72 9.204v-1.92H18.072v2.438h8.96l-9.021 13.044v1.966h12.998v-2.423h-9.326l9.036-13.105z"/></symbol>
<symbol id="icon-up-down" viewBox="0 0 32 32"><path   d="m16 5.031 5.636 5.636 2.507-2.507L16.001 0l-8.16 8.16 2.524 2.507 5.636-5.636zm0 21.938-5.636-5.635-2.507 2.507 8.142 8.16 8.16-8.16-2.524-2.507-5.636 5.635z"/></symbol>
<symbol id="icon-export" viewBox="0 0 32 32"><path   d="M16 1.333 3.556 13.777h7.111v10.667h10.667V13.777h7.111L16.001 1.333zm1.778 8.889v10.667h-3.556V10.222h-2.08L16 6.364l3.858 3.858h-2.08zM3.555 28h24.889v3.555H3.555V28z"/></symbol>
<symbol id="icon-left" viewBox="0 0 32 32"><path   d="m25.052 3.956-2.637-2.622L7.763 16.001 22.43 30.668l2.622-2.622-12.044-12.044L25.052 3.958z"/></symbol>
<symbol id="icon-right" viewBox="0 0 32 32"><path  d="m6.948 28.044 2.622 2.622 14.667-14.667L9.57 1.332 6.948 3.954l12.044 12.044L6.948 28.042z"/></symbol>
<symbol id="icon-search" viewBox="0 0 32 32"><path   d="M22.222 19.556h-1.404l-.498-.48a11.507 11.507 0 0 0 2.791-7.52C23.111 5.174 17.938 0 11.555 0S-.001 5.173-.001 11.556c0 6.382 5.173 11.556 11.556 11.556 2.862 0 5.493-1.049 7.52-2.791l.48.498v1.404l8.889 8.871 2.649-2.649-8.871-8.889zm-10.666 0c-4.427 0-8-3.573-8-8s3.573-8 8-8 8 3.573 8 8-3.573 8-8 8z"/></symbol>
<symbol id="icon-calendar" viewBox="0 0 32 32"><path   d="M11.429 14.095H8.381v3.048h3.048v-3.048zm6.095 0h-3.048v3.048h3.048v-3.048zm6.095 0h-3.048v3.048h3.048v-3.048zm3.048-10.667h-1.524V.38h-3.048v3.048H9.904V.38H6.856v3.048H5.332a3.047 3.047 0 0 0-3.048 3.048v21.333a3.046 3.046 0 0 0 3.048 3.048h21.333a3.047 3.047 0 0 0 3.048-3.048V6.476a3.047 3.047 0 0 0-3.048-3.048zm0 24.381H5.334V11.047h21.333v16.762z"/></symbol>
<symbol id="icon-refresh" viewBox="0 0 32 32"><path   d="M25.333 10.667 20 16h4c0 4.413-3.587 8-8 8a7.823 7.823 0 0 1-3.733-.933l-1.947 1.947A10.575 10.575 0 0 0 16 26.667c5.893 0 10.667-4.773 10.667-10.667h4l-5.333-5.333zM8 16c0-4.413 3.587-8 8-8 1.347 0 2.627.333 3.733.933l1.947-1.947A10.575 10.575 0 0 0 16 5.333C10.107 5.333 5.333 10.106 5.333 16h-4l5.333 5.333L11.999 16h-4z"/></symbol>
<symbol id="icon-info" viewBox="0 0 32 32"><path   d="M14.476 23.619h3.048v-9.143h-3.048v9.143zM16 .762C7.589.762.762 7.589.762 16S7.589 31.238 16 31.238 31.238 24.411 31.238 16 24.411.762 16 .762zm0 27.429C9.28 28.191 3.81 22.72 3.81 16S9.28 3.81 16 3.81 28.191 9.28 28.191 16 22.72 28.191 16 28.191zm-1.524-16.762h3.048V8.381h-3.048v3.048z"/></symbol>
<symbol id="icon-up" viewBox="0 0 32 32"><path  d="M0 24 16 8l16 16H0z"/></symbol>
<symbol id="icon-square" viewBox="0 0 32 32"><path   d="M27.667 4.333v23.333H4.334V4.333h23.333zm0-3.333H4.334a3.343 3.343 0 0 0-3.333 3.333v23.333c0 1.833 1.5 3.333 3.333 3.333h23.333c1.833 0 3.333-1.5 3.333-3.333V4.333C31 2.5 29.5 1 27.667 1z"/></symbol>
<symbol id="icon-square-yes" viewBox="0 0 32 32"><path d="M27.667 1H4.334a3.343 3.343 0 0 0-3.333 3.333v23.333c0 1.833 1.5 3.333 3.333 3.333h23.333c1.833 0 3.333-1.5 3.333-3.333V4.333C31 2.5 29.5 1 27.667 1zm0 26.667H4.334V4.334h23.333v23.333zM25.983 11l-2.35-2.367L12.65 19.616l-4.3-4.283-2.367 2.35 6.667 6.65L25.983 11z"/></symbol>
<symbol id="icon-edit" viewBox="0 0 32 32"><path  d="M0 24.615v6.154h6.154l18.15-18.15-6.154-6.154L0 24.615zm4.792 2.872h-1.51v-1.51L18.15 11.109l1.51 1.51L4.792 27.487zm24.271-21.94-3.84-3.84c-.328-.328-.739-.476-1.165-.476s-.837.164-1.149.476L19.906 4.71l6.154 6.154 3.003-3.003c.64-.64.64-1.674 0-2.314z"/></symbol>
<symbol id="icon-stat" viewBox="0 0 32 32"><path  d="m22.096 6.857 3.49 3.49-7.436 7.436-6.095-6.095L.764 22.995l2.149 2.149 9.143-9.143 6.095 6.095 9.6-9.585 3.489 3.49V6.858h-9.143z"/></symbol>
<symbol id="icon-unzip" viewBox="0 0 32 32"><path  d="M31.182 3.964 28.711.977a2.582 2.582 0 0 0-2.045-.978H5.333a2.64 2.64 0 0 0-2.062.978L.818 3.964A3.477 3.477 0 0 0 0 6.222v22.222c0 1.955 1.6 3.555 3.556 3.555h24.889c1.955 0 3.555-1.6 3.555-3.555V6.222c0-.853-.302-1.653-.818-2.258zM5.76 3.556h20.48l1.475 1.778H4.302L5.76 3.556zm22.685 24.889H3.556V8.889h24.889v19.556zm-15.023-3.556h5.156v-5.333h4.533L16 12.445l-7.111 7.111h4.533v5.333z"/></symbol>
<symbol id="icon-down" viewBox="0 0 32 32"><path  d="m0 8 16 16L32 8H0z"/></symbol>
<symbol id="icon-arrow-up" viewBox="0 0 32 32"><path d="M16 1 1 16h9v16h12V16h9z"/></symbol>
<symbol id="icon-arrow-down" viewBox="0 0 32 32"><path d="m16 31 15-15h-9V0H10v16H1z"/></symbol></defs></svg>